<?xml version="1.0" encoding="UTF-8" standalone="no"?>
<!-- Created with Inkscape (http://www.inkscape.org/) -->

<svg
   width="31.999998"
   height="31.999998"
   viewBox="0 0 8.4666661 8.4666661"
   version="1.1"
   id="svg1"
   sodipodi:docname="pin.svg"
   inkscape:version="1.3.2 (091e20ef0f, 2023-11-25)"
   xmlns:inkscape="http://www.inkscape.org/namespaces/inkscape"
   xmlns:sodipodi="http://sodipodi.sourceforge.net/DTD/sodipodi-0.dtd"
   xmlns="http://www.w3.org/2000/svg"
   xmlns:svg="http://www.w3.org/2000/svg">
  <sodipodi:namedview
     id="namedview1"
     pagecolor="#000000"
     bordercolor="#000000"
     borderopacity="0.25"
     inkscape:showpageshadow="2"
     inkscape:pageopacity="0.0"
     inkscape:pagecheckerboard="0"
     inkscape:deskcolor="#d1d1d1"
     inkscape:zoom="12.172242"
     inkscape:cx="7.4349491"
     inkscape:cy="22.756695"
     inkscape:window-width="1920"
     inkscape:window-height="1006"
     inkscape:window-x="0"
     inkscape:window-y="0"
     inkscape:window-maximized="1"
     inkscape:current-layer="svg1" />
  <defs
     id="defs1" />
  <g
     id="layer1"
     style="fill:none;fill-opacity:1;stroke:#ffffff;stroke-width:1.28538;stroke-linecap:round;stroke-linejoin:round;stroke-dasharray:none;stroke-opacity:1"
     transform="matrix(1.0291992,0,0,1.0291992,-0.26037182,-2.3545426)" />
  <path
     d="m 2.1384637,5.3784475 h 1.7984886 v 1.7311214 c 0,0.5119333 0.2155496,0.9430299 0.2997431,0.9430299 0.080832,0 0.2963811,-0.4310966 0.2963811,-0.9430299 V 5.3784475 h 1.7951253 c 0.2323915,0 0.4007929,-0.148198 0.4007929,-0.3738493 0,-0.1414584 -0.043788,-0.2424932 -0.1414577,-0.3468913 L 5.5569366,3.539536 C 5.4862224,3.4654448 5.4424368,3.4115569 5.4592644,3.2734618 L 5.6310428,2.0441682 c 0.010103,-0.070729 0.01683,-0.1111522 0.080816,-0.1549371 L 6.5370124,1.2897443 C 6.7222557,1.1550119 6.8030865,0.98998678 6.8030865,0.83842682 c 0,-0.2256519 -0.1818663,-0.4243595 -0.4412014,-0.4243595 H 2.1047805 c -0.2593346,0 -0.4412009,0.1987076 -0.4412009,0.4243595 0,0.15155996 0.080831,0.31658508 0.2626972,0.45131748 l 0.8285151,0.5994868 c 0.063988,0.043788 0.070729,0.084208 0.080831,0.1549371 l 0.1717784,1.2292936 c 0.020206,0.1380951 -0.026959,0.191983 -0.097687,0.2660742 L 1.8791292,4.6577069 C 1.7814562,4.762105 1.7376708,4.8631398 1.7376708,5.0045982 c 0,0.2256513 0.168402,0.3738493 0.4007929,0.3738493 z M 2.5763026,4.8361962 c -0.030322,0 -0.050528,-0.020206 -0.050528,-0.050528 0,-0.020193 0.013466,-0.040412 0.030309,-0.057248 L 3.418282,3.8258135 C 3.5294191,3.714662 3.5732047,3.5934226 3.5597397,3.4688062 L 3.3509298,1.8454442 C 3.3340872,1.7141025 3.2903055,1.6164303 3.1926301,1.5490638 L 2.4617878,1.0640774 c -0.023582,-0.016843 -0.030309,-0.033672 -0.030309,-0.057248 0,-0.030322 0.023569,-0.050528 0.053872,-0.050528 h 3.495956 c 0.030309,0 0.053872,0.020206 0.053872,0.050528 0,0.023582 -0.00673,0.040412 -0.030309,0.057248 L 5.274027,1.5490638 C 5.1763541,1.6164303 5.1325686,1.7141025 5.1157272,1.8454442 L 4.9069173,3.4688062 C 4.8934383,3.5934226 4.9372263,3.714662 5.044998,3.8258135 l 0.8655754,0.9026069 c 0.01683,0.016843 0.026946,0.037062 0.026946,0.057248 0,0.030322 -0.016843,0.050528 -0.047165,0.050528 z"
     id="path1"
     style="fill:#ffffff;fill-opacity:1;stroke:#ffffff;stroke-width:0.396875;stroke-dasharray:none;stroke-opacity:1" />
</svg>
